<?xml version="1.0" encoding="UTF-8"?>
<svg version="1.1" xmlns="http://www.w3.org/2000/svg" width="16" height="16">
<path d="M0 0 C0.76699219 0.09925781 1.53398437 0.19851562 2.32421875 0.30078125 C4.3125 0.6875 4.3125 0.6875 6.3125 1.6875 C6.3125 5.6475 6.3125 9.6075 6.3125 13.6875 C0.66905995 15.94487602 0.66905995 15.94487602 -3.375 15.375 C-4.14199219 15.27574219 -4.90898438 15.17648437 -5.69921875 15.07421875 C-7.6875 14.6875 -7.6875 14.6875 -9.6875 13.6875 C-9.6875 9.7275 -9.6875 5.7675 -9.6875 1.6875 C-4.04405995 -0.56987602 -4.04405995 -0.56987602 0 0 Z " fill="#555555" transform="translate(9.6875,0.3125)"/>
<path d="M0 0 C0 3.63 0 7.26 0 11 C-5 13 -5 13 -8 13 C-8 9.7 -8 6.4 -8 3 C-2.25 0 -2.25 0 0 0 Z " fill="#3B3B3B" transform="translate(16,3)"/>
<path d="M0 0 C0.78503906 0.07863281 1.57007813 0.15726563 2.37890625 0.23828125 C4.4375 0.6875 4.4375 0.6875 6.4375 2.6875 C2.65666742 5.20805505 -1.17968019 5.15452178 -5.5625 4.6875 C-8.0625 3.6875 -8.0625 3.6875 -9.5625 2.6875 C-6.4937495 -0.3812505 -4.10983021 -0.45363859 0 0 Z " fill="#787878" transform="translate(9.5625,0.3125)"/>
</svg>
